<svg xmlns:xlink="http://www.w3.org/1999/xlink" xmlns="http://www.w3.org/2000/svg" class="icon-size-md" viewBox="0 0 40 40" width="40" height="40" role="img"><defs><symbol id="il_tyw_make_it_yours" xmlns="http://www.w3.org/2000/svg" viewBox="0 0 62 62">
		<title>Make it yours</title>
		<path d="m25.84,15.86h10.33c1.03,0,1.87-.84,1.87-1.87V2.87c0-1.03-.84-1.87-1.87-1.87h-10.33c-1.03,0-1.87.84-1.87,1.87v11.12c0,1.03.84,1.87,1.87,1.87Zm-.13-12.99c0-.07.06-.13.13-.13h10.33c.07,0,.13.06.13.13v11.12c0,.07-.06.13-.13.13h-10.33c-.07,0-.13-.06-.13-.13V2.87Zm4.65,8.98c.17.18.4.28.65.28h0c.25,0,.48-.11.65-.28l2.77-2.92.03-.03c.43-.43.66-1.02.63-1.62-.03-.61-.31-1.17-.78-1.56-.38-.32-.86-.47-1.33-.47-.58,0-1.17.23-1.61.67l-.23.23s-.08.05-.12.05-.09-.02-.12-.05l-.23-.23c-.44-.44-1.03-.67-1.61-.67-.48,0-.95.15-1.33.47-.48.39-.75.95-.78,1.56-.03.6.2,1.19.62,1.62l2.81,2.96Zm-2.1-5.46c.21-.18.49-.27.78-.27.37,0,.73.15,1,.41l.23.23c.2.2.46.3.73.3s.54-.11.73-.3l.23-.23c.26-.26.63-.41,1-.41.21,0,.51.05.78.27.29.24.45.56.47.93.02.36-.12.71-.38.97l-.05.05-2.77,2.92h-.03l-2.82-2.97c-.25-.25-.39-.6-.37-.96.02-.37.18-.69.47-.93Zm2.73,47.28c-.91,0-1.65.74-1.65,1.65s.74,1.65,1.65,1.65,1.65-.74,1.65-1.65-.74-1.65-1.65-1.65Zm0,2.44c-.43,0-.79-.35-.79-.79s.35-.79.79-.79.79.35.79.79-.35.79-.79.79Zm3.17-27.63c0,.24-.19.43-.43.43h-5.48c-.24,0-.43-.19-.43-.43s.19-.43.43-.43h5.48c.24,0,.43.19.43.43Zm24.97-12.62h-10.33c-1.03,0-1.87.84-1.87,1.87v11.12c0,1.03.84,1.87,1.87,1.87h10.33c1.03,0,1.87-.84,1.87-1.87v-11.12c0-1.03-.84-1.87-1.87-1.87Zm.13,12.99c0,.07-.06.13-.13.13h-10.33c-.07,0-.13-.06-.13-.13v-11.12c0-.07.06-.13.13-.13h10.33c.07,0,.13.06.13.13v11.12Zm-3.34-8.74c-.58,0-1.17.23-1.61.67l-.23.23s-.08.05-.12.05-.09-.02-.12-.05l-.23-.23c-.44-.44-1.03-.67-1.61-.67-.48,0-.95.15-1.33.47-.48.39-.75.95-.78,1.56-.03.6.2,1.19.62,1.62l2.81,2.96c.17.18.4.28.64.28h0c.25,0,.48-.11.65-.28l2.77-2.92.03-.03c.43-.43.66-1.02.63-1.62-.03-.61-.31-1.17-.78-1.56-.38-.32-.86-.47-1.33-.47Zm.87,3.04l-.05.05-2.77,2.92h-.03l-2.82-2.97c-.25-.25-.39-.6-.37-.96.02-.37.18-.69.47-.93.22-.18.49-.27.78-.27.37,0,.73.15,1,.41l.23.23c.2.2.46.3.73.3s.54-.11.73-.3l.23-.23c.26-.26.63-.42,1-.42.21,0,.51.05.78.27.29.24.45.56.47.93.02.36-.12.71-.38.97Zm-41.74,5.71v-11.12c0-1.03-.84-1.87-1.87-1.87H2.87c-1.03,0-1.87.84-1.87,1.87v11.12c0,1.03.84,1.87,1.87,1.87h10.33c1.03,0,1.87-.84,1.87-1.87Zm-1.73,0c0,.07-.06.13-.13.13H2.87c-.07,0-.13-.06-.13-.13v-11.12c0-.07.06-.13.13-.13h10.33c.07,0,.13.06.13.13v11.12Zm-3.34-8.74c-.58,0-1.17.23-1.61.67l-.23.23s-.08.05-.12.05-.09-.02-.12-.05l-.23-.23c-.44-.44-1.03-.67-1.61-.67-.48,0-.95.15-1.33.47-.48.39-.75.95-.78,1.56-.03.6.2,1.19.62,1.62l2.81,2.96c.17.18.4.28.64.28h0c.25,0,.48-.11.65-.28l2.77-2.92.03-.03c.43-.43.66-1.02.63-1.62-.03-.61-.31-1.17-.78-1.56-.38-.32-.86-.47-1.33-.47Zm.87,3.04l-.05.05-2.77,2.92h-.03l-2.82-2.97c-.25-.25-.39-.6-.37-.96.02-.37.18-.69.47-.93.22-.18.49-.27.78-.27.37,0,.73.15,1,.41l.23.23c.2.2.46.3.73.3s.54-.11.73-.3l.23-.23c.26-.26.63-.42,1-.42.21,0,.51.05.78.27.29.24.45.56.47.93.02.36-.12.71-.38.97Zm37.69,8.46s-.02-.03-.03-.04c-.01-.01-.02-.01-.03-.02-.07-.07-.15-.13-.25-.16-.11-.04-.22-.07-.33-.07h-4.52c-.48,0-.87.39-.87.87s.39.87.87.87h2.43l-4.75,4.74v-9.62c0-2.09-1.71-3.8-3.8-3.8h-5.41v-4.58l1.72,1.72c.17.17.39.25.61.25s.44-.08.61-.25c.34-.34.34-.89,0-1.23l-3.2-3.19c-.34-.34-.89-.34-1.22,0l-3.2,3.19c-.34.34-.34.89,0,1.23.34.34.89.34,1.23,0l1.72-1.72v4.58h-5.41c-2.09,0-3.8,1.71-3.8,3.8v9.62l-4.75-4.74h2.43c.48,0,.87-.39.87-.87s-.39-.87-.87-.87h-4.52c-.11,0-.23.02-.33.07-.09.04-.17.1-.24.16-.01.01-.03.01-.04.02-.01.01-.02.03-.03.04-.06.07-.12.15-.16.24-.04.11-.07.22-.07.33v4.52c0,.48.39.87.87.87s.87-.39.87-.87v-2.43l5.98,5.97v16.97c0,2.09,1.71,3.8,3.8,3.8h12.54c2.09,0,3.8-1.71,3.8-3.8v-16.97l5.98-5.97v2.43c0,.48.39.87.87.87s.87-.39.87-.87v-4.52c0-.11-.02-.23-.07-.33-.04-.09-.09-.17-.16-.24Zm-9.22,25.6c0,1.14-.93,2.07-2.07,2.07h-12.54c-1.14,0-2.07-.93-2.07-2.07v-29.04c0-1.14.93-2.07,2.07-2.07h12.54c1.14,0,2.07.93,2.07,2.07v29.04Z" fill-rule="evenodd"></path>
	</symbol></defs>
        
        <use href="#il_tyw_make_it_yours"></use>
    </svg>