<svg xmlns:xlink="http://www.w3.org/1999/xlink" xmlns="http://www.w3.org/2000/svg" class="icon-size-md" viewBox="0 0 40 40" width="40" height="40" role="img"><defs><symbol id="il_tyw_pay_your_way" xmlns="http://www.w3.org/2000/svg" viewBox="0 0 62 62">
		<title>Pay your way</title>
		<path d="m38.43,5.91c0,.24-.19.43-.43.43h-6.04c-.24,0-.43-.19-.43-.43s.19-.43.43-.43h6.04c.24,0,.43.19.43.43Zm-1.63,29.22c0,.99-.82,1.8-1.82,1.8s-1.82-.81-1.82-1.8.82-1.8,1.82-1.8,1.82.81,1.82,1.8Zm-.87,0c0-.52-.43-.94-.96-.94s-.96.42-.96.94.43.94.96.94.96-.42.96-.94Zm25.06,4.51v17.19c0,2.07-1.7,3.75-3.8,3.75h-12.13c-2.1,0-3.8-1.68-3.8-3.75v-15.51h-12.02v11.47c0,2.07-1.7,3.75-3.8,3.75H4.81c-2.1,0-3.8-1.68-3.8-3.75v-28.16c0-2.07,1.7-3.75,3.8-3.75h12.26c.56,0,1.09.22,1.49.61l5.31,5.25V5.17c0-2.06,1.71-3.75,3.8-3.75h14.59c2.09,0,3.8,1.69,3.8,3.75v9.83c.42-.08.85-.12,1.29-.12,3.97,0,7.18,3.17,7.18,7.09s-3.21,7.09-7.18,7.09c-.44,0-.87-.05-1.29-.12v4.34h8.35c.49,0,.95.19,1.3.52l4.7,4.53c.36.35.56.82.56,1.32Zm-19.07-17.67c0,2.97,2.44,5.38,5.45,5.38s5.45-2.41,5.45-5.38-2.44-5.38-5.45-5.38-5.45,2.41-5.45,5.38Zm-24.09,9.19c0,.54.45.99,1,.99h8.07l-9.07-8.95v7.97Zm9.68,2.7h-8.68c-1.51,0-2.73-1.21-2.73-2.7v-8.56H4.81c-1.14,0-2.07.91-2.07,2.04v28.16c0,1.12.93,2.04,2.07,2.04h20.63c1.14,0,2.07-.91,2.07-2.04v-18.94Zm16.83-.51v-4.95c-2.45-1.13-4.15-3.57-4.15-6.42s1.7-5.29,4.15-6.42V5.17c0-1.12-.93-2.04-2.07-2.04h-14.59c-1.14,0-2.07.91-2.07,2.04v23.28l3.01,2.97c.4.39.62.92.62,1.47v6.72h12.02v-2.59c0-1.83,1.32-3.34,3.08-3.68Zm14.92,6.3s-.01-.07-.04-.09l-4.7-4.53s-.06-.04-.09-.04h-9.36c-1.14,0-2.07.91-2.07,2.04v19.82c0,1.12.93,2.04,2.07,2.04h12.13c1.14,0,2.07-.91,2.07-2.04v-17.19Zm-5.42,7.1c-.44-.36-1.22-.75-2.39-.57-.23.03-.91.13-1.55.67-.58.49-.81,1.06-.91,1.31-.17.43-.25.99-.25,1.67,0,.19.01.35.02.46v.39s-.92,0-.92,0c-.24,0-.43.19-.43.43s.19.43.43.43h.93v.47c.04.18.07.36.07.65,0,.33,0,.74-.19,1.2-.11.27-.26.52-.45.74-.22.26-.27.63-.13.94.15.31.46.51.81.51h5.28c.24,0,.43-.19.43-.43s-.19-.43-.43-.43l-5.3-.04c.25-.29.45-.62.59-.98.25-.62.25-1.16.25-1.51,0-.35-.03-.58-.07-.77v-.34s2.62,0,2.62,0c.24,0,.43-.19.43-.43s-.19-.43-.43-.43h-2.62v-.42c-.01-.13-.02-.26-.02-.43,0-.57.06-1.02.19-1.35.08-.2.25-.62.66-.96.45-.38.93-.45,1.12-.48.85-.12,1.4.14,1.71.39.3.24.46.52.53.66.07.15.13.32.16.49.04.23.27.39.5.34.24-.04.39-.26.35-.5-.05-.25-.12-.49-.23-.71-.1-.21-.33-.62-.77-.96ZM5.33,8.64c0-3.91,3.21-7.09,7.18-7.09s7.18,3.17,7.18,7.09-3.21,7.09-7.18,7.09-7.18-3.17-7.18-7.09Zm1.73,0c0,2.97,2.44,5.38,5.45,5.38s5.45-2.41,5.45-5.38-2.44-5.38-5.45-5.38-5.45,2.41-5.45,5.38Zm3.57.26h.3s0,.09,0,.09c.02.08.03.17.03.31,0,.17,0,.36-.09.58-.05.12-.12.24-.21.34-.17.2-.21.48-.1.72.11.24.35.39.62.39h2.84c.24,0,.43-.19.43-.43s-.19-.43-.43-.43h-2.49c.05-.09.1-.18.14-.28.15-.37.15-.69.15-.89,0-.18-.01-.3-.03-.4h1.21c.24,0,.43-.19.43-.43s-.19-.43-.43-.43h-1.21v-.05c0-.06-.01-.13-.01-.22,0-.35.05-.55.09-.66.04-.1.12-.29.3-.44.2-.17.41-.2.5-.21.31-.04.57.01.77.17.14.11.21.24.23.29.03.07.06.14.07.22.04.23.27.38.5.34.24-.04.39-.26.35-.5-.03-.15-.07-.3-.14-.43-.06-.13-.2-.37-.47-.59-.27-.22-.74-.46-1.44-.35-.14.02-.55.08-.93.41-.35.29-.49.64-.55.78-.1.26-.15.58-.15.97,0,.11,0,.2.01.25h0s-.3,0-.3,0c-.24,0-.43.19-.43.43s.19.43.43.43Zm7.38,37.78c0,.18.01.33.02.42v.32s-.81,0-.81,0c-.24,0-.43.19-.43.43s.19.43.43.43h.81v.4c.04.16.06.32.06.58,0,.3,0,.67-.17,1.09-.1.24-.23.46-.4.67-.21.25-.26.6-.12.9.14.3.44.49.77.49h4.83c.24,0,.43-.19.43-.43s-.19-.43-.43-.43l-4.82.02c.23-.27.42-.58.55-.9.23-.57.23-1.07.23-1.4,0-.32-.03-.54-.06-.71v-.28s2.36,0,2.36,0c.24,0,.43-.19.43-.43s-.19-.43-.43-.43h-2.36v-.35c-.01-.12-.02-.24-.02-.39,0-.51.05-.93.17-1.22.07-.18.22-.56.59-.87.41-.34.84-.4,1-.43.77-.11,1.26.13,1.54.35.27.22.41.47.48.6.07.14.11.28.14.44.04.23.27.39.5.34.24-.04.39-.26.35-.5-.04-.23-.11-.45-.21-.66-.09-.2-.31-.57-.71-.89-.41-.33-1.13-.69-2.21-.53-.21.03-.84.12-1.44.62-.54.45-.75.98-.84,1.21-.16.4-.23.92-.23,1.54Zm-4.68-18.7h-7.79c-.24,0-.43.19-.43.43s.19.43.43.43h7.79c.24,0,.43-.19.43-.43s-.19-.43-.43-.43Zm0,1.79h-7.79c-.24,0-.43.19-.43.43s.19.43.43.43h7.79c.24,0,.43-.19.43-.43s-.19-.43-.43-.43Zm0,1.85h-7.79c-.24,0-.43.19-.43.43s.19.43.43.43h7.79c.24,0,.43-.19.43-.43s-.19-.43-.43-.43Zm0,3.03h-7.79c-.24,0-.43.19-.43.43s.19.43.43.43h7.79c.24,0,.43-.19.43-.43s-.19-.43-.43-.43Zm0,1.82h-7.79c-.24,0-.43.19-.43.43s.19.43.43.43h7.79c.24,0,.43-.19.43-.43s-.19-.43-.43-.43Zm-3.9,1.82h-3.89c-.24,0-.43.19-.43.43s.19.43.43.43h3.89c.24,0,.43-.19.43-.43s-.19-.43-.43-.43Zm36.05-16.06h.3s0,.09,0,.09c.02.08.03.17.03.31,0,.17,0,.36-.09.58-.05.12-.12.24-.21.34-.17.2-.21.48-.1.72.11.24.35.39.62.39h2.84c.24,0,.43-.19.43-.43s-.19-.43-.43-.43h-2.49c.05-.09.1-.18.14-.28.15-.37.15-.69.15-.89,0-.18-.01-.3-.03-.4h1.21c.24,0,.43-.19.43-.43s-.19-.43-.43-.43h-1.21v-.05c0-.06-.01-.13-.01-.22,0-.35.05-.55.09-.65.04-.09.11-.29.3-.44.2-.17.41-.2.5-.21.31-.04.57.01.77.17.14.11.21.24.23.29.03.07.06.14.07.22.04.23.27.39.5.34.24-.04.39-.26.35-.5-.03-.15-.07-.3-.14-.43-.06-.13-.2-.38-.47-.59-.27-.22-.74-.46-1.44-.35-.14.02-.55.08-.94.41-.35.29-.49.65-.54.78-.1.26-.15.58-.15.97,0,.11,0,.2.01.25h0s-.3,0-.3,0c-.24,0-.43.19-.43.43s.19.43.43.43Z" fill-rule="evenodd"></path>
	</symbol></defs>
        
        <use href="#il_tyw_pay_your_way"></use>
    </svg>