<svg xmlns:xlink="http://www.w3.org/1999/xlink" xmlns="http://www.w3.org/2000/svg" class="icon-size-md" viewBox="0 0 40 40" width="40" height="40" role="img"><defs><symbol id="il_tyw_your_big_network" xmlns="http://www.w3.org/2000/svg" viewBox="0 0 62 62">
		<title>Your big network</title>
		<path d="m5.73,19.59l-1.46,2.96-3.27.47,2.37,2.3-.56,3.25,2.93-1.53,2.93,1.53-.56-3.25,2.37-2.3-3.27-.47-1.46-2.96Zm1.76,5.11c-.2.2-.3.49-.25.77l.26,1.52-1.37-.72c-.13-.07-.26-.1-.4-.1s-.28.03-.4.1l-1.37.72.26-1.52c.05-.28-.05-.57-.25-.77l-1.1-1.07,1.53-.22c.28-.04.53-.22.65-.47l.69-1.39.69,1.39c.13.26.37.43.65.47l1.53.22-1.1,1.07Zm7.51.09c.83,0,1.5-.67,1.5-1.49s-.67-1.49-1.5-1.49-1.5.67-1.5,1.49.67,1.49,1.5,1.49Zm0-2.12c.35,0,.63.28.63.63s-.28.63-.63.63-.63-.28-.63-.63.28-.63.63-.63Zm5.57-13.82c.93,0,1.68-.75,1.68-1.68s-.75-1.67-1.68-1.67-1.68.75-1.68,1.67.75,1.68,1.68,1.68Zm0-2.48c.45,0,.81.36.81.81s-.36.81-.81.81-.81-.36-.81-.81.37-.81.81-.81Zm-13.61,10.51c.93,0,1.68-.75,1.68-1.68s-.75-1.67-1.68-1.67-1.68.75-1.68,1.67.75,1.68,1.68,1.68Zm0-2.48c.45,0,.81.36.81.81s-.36.81-.81.81-.81-.36-.81-.81.37-.81.81-.81Zm9.38-.47v-1.2c0-.24.19-.43.43-.43s.43.19.43.43v1.2c0,.93.76,1.68,1.69,1.68,1.41,0,2.55,1.14,2.55,2.55v1.07c0,.24-.19.43-.43.43s-.43-.19-.43-.43v-1.07c0-.93-.76-1.68-1.69-1.68-1.41,0-2.55-1.14-2.55-2.55Zm41.25,25.93v1.07c0,.24-.19.43-.43.43s-.43-.19-.43-.43v-1.07c0-.93-.76-1.68-1.69-1.68-1.41,0-2.56-1.14-2.56-2.55v-1.2c0-.24.19-.43.43-.43s.43.19.43.43v1.2c0,.93.76,1.68,1.69,1.68,1.41,0,2.55,1.14,2.55,2.55Zm-48.07,0v1.07c0,.24-.19.43-.43.43s-.43-.19-.43-.43v-1.07c0-.93-.76-1.68-1.69-1.68-1.41,0-2.55-1.14-2.55-2.55v-1.2c0-.24.19-.43.43-.43s.43.19.43.43v1.2c0,.93.76,1.68,1.69,1.68,1.41,0,2.56,1.14,2.56,2.55Zm51.48-16.81l-3.27-.47-1.46-2.96-1.46,2.96-3.27.47,2.37,2.3-.56,3.25,2.93-1.53,2.93,1.53-.56-3.25,2.37-2.3Zm-4.33,3.25c-.13-.07-.26-.1-.4-.1s-.28.03-.4.1l-1.37.72.26-1.52c.05-.28-.04-.57-.25-.77l-1.1-1.07,1.53-.22c.28-.04.53-.22.65-.47l.69-1.39.69,1.39c.13.26.37.43.65.47l1.53.22-1.1,1.07c-.21.2-.3.49-.25.77l.26,1.52-1.37-.72Zm-15.24-17.43c.93,0,1.68-.75,1.68-1.68s-.75-1.67-1.68-1.67-1.68.75-1.68,1.67.75,1.68,1.68,1.68Zm0-2.48c.45,0,.81.36.81.81s-.36.81-.81.81-.81-.36-.81-.81.37-.81.81-.81Zm13.61,10.51c.93,0,1.68-.75,1.68-1.68s-.75-1.67-1.68-1.67-1.68.75-1.68,1.67.75,1.68,1.68,1.68Zm0-2.48c.45,0,.81.36.81.81s-.37.81-.81.81-.81-.36-.81-.81.36-.81.81-.81Zm-26.99-4.4l2.93-1.53,2.93,1.53-.56-3.25,2.37-2.3-3.27-.47-1.46-2.96-1.46,2.96-3.27.47,2.37,2.3-.56,3.25Zm.06-4.94l1.53-.22c.28-.04.53-.22.65-.47l.69-1.39.69,1.39c.13.26.37.43.65.47l1.53.22-1.1,1.07c-.2.2-.3.49-.25.77l.26,1.52-1.37-.72c-.13-.07-.26-.1-.4-.1s-.28.03-.4.1l-1.37.72.26-1.52c.05-.28-.05-.57-.25-.77l-1.1-1.07Zm12.52,12.43c0,.24-.19.43-.43.43h-6.06c-.24,0-.43-.19-.43-.43s.19-.43.43-.43h6.06c.24,0,.43.19.43.43Zm-3.47,27.82c-1.01,0-1.83.82-1.83,1.82s.82,1.82,1.83,1.82,1.83-.82,1.83-1.82-.82-1.82-1.83-1.82Zm0,2.78c-.53,0-.96-.43-.96-.96s.43-.96.96-.96.96.43.96.96-.43.96-.96.96Zm7.34-35.15h-14.68c-2.09,0-3.8,1.71-3.8,3.8v11.59c-.27-.06-.56-.1-.85-.1h-5.53c-2.1,0-3.81,1.71-3.81,3.8v3.68c-1.29.61-2.19,1.92-2.19,3.44v10.89c0,1.52.9,2.83,2.19,3.44v3.75c0,2.09,1.71,3.8,3.81,3.8h5.53c2.09,0,3.81-1.71,3.81-3.8v-3.75c.08-.04.16-.08.24-.12.19.03.39.06.59.06h14.68c2.09,0,3.8-1.71,3.8-3.8V16.72c0-2.09-1.71-3.8-3.8-3.8Zm-26.94,19.09c0-1.14.93-2.06,2.08-2.06h5.53c1.14,0,2.08.93,2.08,2.06v3.31h-9.68v-3.31Zm9.68,22.41v2.78c0,1.14-.93,2.07-2.08,2.07h-5.53c-1.14,0-2.08-.93-2.08-2.07v-3.38h9.68v.6Zm2.19-4.4c0,1.14-.93,2.07-2.07,2.07h-9.93c-1.14,0-2.07-.93-2.07-2.07v-10.89c0-1.14.93-2.07,2.07-2.07h9.93c1.14,0,2.07.93,2.07,2.07v10.89Zm17.13-.43c0,1.14-.93,2.07-2.07,2.07h-13.7c.24-.5.38-1.05.38-1.63v-10.89c0-1.52-.9-2.83-2.19-3.44v-3.68c0-1.1-.48-2.09-1.23-2.78v-12.51c0-1.14.93-2.07,2.07-2.07h14.68c1.14,0,2.07.93,2.07,2.07v32.87Zm-26.24-8.68v8.98c0,.24-.19.43-.43.43s-.43-.19-.43-.43v-8.98c0-.24.19-.43.43-.43s.43.19.43.43Zm-1.65,4.49v4.49c0,.24-.19.43-.43.43s-.43-.19-.43-.43v-4.49c0-.24.19-.43.43-.43s.43.19.43.43Zm4.93-2.22v6.71c0,.24-.19.43-.43.43s-.43-.19-.43-.43v-6.71c0-.24.19-.43.43-.43s.43.19.43.43Zm3.2-2.27v8.98c0,.24-.19.43-.43.43s-.43-.19-.43-.43v-8.98c0-.24.19-.43.43-.43s.43.19.43.43Zm-1.65,4.49v4.49c0,.24-.19.43-.43.43s-.43-.19-.43-.43v-4.49c0-.24.19-.43.43-.43s.43.19.43.43Z" fill-rule="evenodd"></path>
	</symbol></defs>
        
        <use href="#il_tyw_your_big_network"></use>
    </svg>